<svg width="240" height="240" viewBox="0 0 512 512" fill="none" xmlns="http://www.w3.org/2000/svg">
  <defs>
    <linearGradient id="mark-surface" x1="60" y1="60" x2="452" y2="452" gradientUnits="userSpaceOnUse">
      <stop offset="0" stop-color="#dcfce7" />
      <stop offset="0.5" stop-color="#fef3c7" />
      <stop offset="1" stop-color="#fde68a" />
    </linearGradient>
    <linearGradient id="mark-trace" x1="120" y1="392" x2="392" y2="120" gradientUnits="userSpaceOnUse">
      <stop offset="0" stop-color="#065f46" />
      <stop offset="0.5" stop-color="#10b981" />
      <stop offset="1" stop-color="#f59e0b" />
    </linearGradient>
  </defs>
  <rect x="40" y="40" width="432" height="432" rx="140" fill="url(#mark-surface)" />
  <path d="M160 320C160 248 208 200 272 200C320 200 360 236 360 288C360 328 332 360 288 360C248 360 224 332 224 296C224 248 260 220 304 220C344 220 376 252 376 304" stroke="url(#mark-trace)" stroke-width="34" stroke-linecap="round" stroke-linejoin="round" />
  <path d="M208 168C226 144 254 128 288 128C346 128 392 176 392 236C392 296 350 344 304 344" stroke="url(#mark-trace)" stroke-width="24" stroke-linecap="round" stroke-linejoin="round" opacity="0.6" />
  <circle cx="182" cy="356" r="30" fill="#10b981" opacity="0.9" />
</svg>
